<svg xmlns="http://www.w3.org/2000/svg" xmlns:xlink="http://www.w3.org/1999/xlink" width="168" zoomAndPan="magnify" viewBox="0 0 126 30.000001" height="40" preserveAspectRatio="xMidYMid meet" version="1.0"><defs><g/><clipPath id="a8f710f22d"><path d="M 2.03125 0 L 33.96875 0 L 33.96875 29.03125 L 2.03125 29.03125 Z M 2.03125 0 " clip-rule="nonzero"/></clipPath></defs><g clip-path="url(#a8f710f22d)"><path fill="#ee2b6c" d="M 33.253906 11.664062 C 33.25 11.652344 33.238281 11.640625 33.226562 11.632812 C 32.515625 11.230469 31.757812 11.027344 30.980469 11.027344 C 29.960938 11.027344 28.933594 11.386719 27.925781 12.09375 C 27.847656 12.152344 27.75 12.183594 27.652344 12.183594 C 27.496094 12.183594 27.347656 12.105469 27.257812 11.980469 C 27.105469 11.765625 27.160156 11.464844 27.375 11.3125 C 28.578125 10.460938 29.691406 10.050781 30.773438 10.050781 C 31.300781 10.050781 31.835938 10.148438 32.414062 10.351562 C 32.441406 10.359375 32.472656 10.351562 32.492188 10.328125 C 32.511719 10.304688 32.941406 9.742188 32.710938 8.371094 C 32.605469 7.878906 32.417969 7.476562 32.148438 7.179688 C 31.609375 6.496094 31.0625 6.351562 30.699219 6.351562 C 30.472656 6.351562 30.328125 6.410156 30.324219 6.410156 C 30.308594 6.417969 30.300781 6.425781 30.292969 6.4375 C 29.769531 7.261719 29.160156 7.8125 28.050781 8.476562 C 27.976562 8.523438 27.890625 8.546875 27.804688 8.546875 C 27.636719 8.546875 27.480469 8.457031 27.394531 8.3125 C 27.257812 8.085938 27.332031 7.789062 27.558594 7.65625 C 28.898438 6.855469 29.429688 6.328125 29.753906 5.480469 C 29.914062 4.882812 29.714844 4.078125 29.289062 3.609375 L 29.203125 3.503906 C 28.714844 2.90625 27.8125 1.792969 25.527344 1.207031 C 25.210938 1.109375 24.886719 1.054688 24.566406 1.054688 C 23.636719 1.054688 23.027344 1.476562 23.003906 1.492188 C 22.980469 1.511719 22.96875 1.542969 22.976562 1.570312 C 23.070312 1.835938 23.34375 2.648438 23.0625 3.554688 C 23 3.757812 22.816406 3.890625 22.605469 3.890625 C 22.558594 3.890625 22.511719 3.886719 22.464844 3.871094 C 22.210938 3.792969 22.070312 3.523438 22.148438 3.269531 C 22.335938 2.667969 22.292969 2.140625 22.027344 1.648438 C 21.675781 1.007812 21.191406 0.578125 20.542969 0.332031 C 19.929688 0.0664062 18.949219 0.0078125 18.558594 -0.00390625 C 16.019531 0.0117188 14.207031 0.175781 11.917969 0.992188 C 11.625 1.089844 11.394531 1.28125 11.273438 1.535156 C 11.128906 1.832031 11.132812 2.207031 11.28125 2.613281 C 11.285156 2.617188 11.289062 2.632812 11.300781 2.660156 C 11.476562 3.179688 11.648438 3.644531 11.816406 4.042969 C 11.863281 4.164062 11.863281 4.292969 11.8125 4.410156 C 11.765625 4.527344 11.671875 4.621094 11.554688 4.667969 C 11.496094 4.695312 11.433594 4.707031 11.371094 4.707031 C 11.179688 4.707031 11.003906 4.589844 10.929688 4.410156 C 10.789062 4.082031 10.363281 3.007812 10.359375 3 C 10.351562 2.976562 10.152344 2.480469 9.515625 2.480469 C 9.035156 2.480469 8.4375 2.765625 7.746094 3.328125 C 6.824219 4.042969 6.351562 4.691406 6.347656 5.25 C 6.34375 5.648438 6.578125 5.84375 6.59375 5.855469 C 6.785156 5.976562 7.816406 6.765625 8.25 7.246094 C 8.429688 7.445312 8.425781 7.746094 8.234375 7.925781 C 8.144531 8.011719 8.027344 8.058594 7.90625 8.058594 C 7.773438 8.058594 7.648438 8.003906 7.558594 7.910156 C 6.488281 6.789062 5.609375 6.246094 4.871094 6.246094 C 4.769531 6.246094 4.667969 6.257812 4.570312 6.277344 C 4.285156 6.34375 3.820312 6.671875 3.542969 7.105469 C 2.558594 8.382812 2.238281 9.386719 2.148438 11.101562 C 2.09375 12.128906 2.371094 13.128906 2.679688 13.566406 C 3.117188 14.175781 3.5625 14.523438 3.730469 14.644531 C 3.730469 14.644531 3.863281 14.730469 3.914062 14.691406 C 4.351562 14.347656 4.855469 14.164062 5.46875 14.164062 C 5.835938 14.164062 6.253906 14.226562 6.707031 14.351562 C 6.824219 14.382812 6.925781 14.460938 6.988281 14.570312 C 7.050781 14.683594 7.066406 14.820312 7.03125 14.945312 C 6.96875 15.148438 6.78125 15.289062 6.570312 15.289062 C 6.523438 15.289062 6.480469 15.28125 6.433594 15.269531 C 6.117188 15.175781 5.824219 15.136719 5.558594 15.128906 C 5.296875 15.121094 4.820312 15.148438 4.601562 15.390625 C 4.59375 15.402344 4.585938 15.414062 4.582031 15.429688 C 4.578125 15.441406 4.527344 16.609375 6.1875 17.203125 C 7.582031 17.703125 8.308594 17.71875 11.339844 17.71875 C 11.785156 17.71875 12.277344 17.714844 12.882812 17.703125 C 13.039062 17.699219 13.253906 17.625 13.394531 17.464844 C 13.5 17.34375 13.542969 17.191406 13.523438 17.03125 C 13.523438 16.773438 13.5625 16.539062 13.648438 16.289062 C 14.011719 15.273438 14.746094 14.609375 16.023438 14.136719 C 16.074219 14.113281 16.132812 14.105469 16.1875 14.105469 C 16.386719 14.105469 16.566406 14.230469 16.636719 14.417969 C 16.683594 14.539062 16.675781 14.667969 16.625 14.785156 C 16.570312 14.902344 16.476562 14.988281 16.355469 15.035156 C 15.378906 15.394531 14.777344 15.914062 14.566406 16.570312 C 14.214844 17.683594 15.03125 18.902344 15.042969 18.910156 C 17.484375 21.300781 22.222656 21.371094 22.460938 20.707031 C 22.664062 20.214844 22.800781 19.433594 22.316406 18.503906 C 21.558594 17.050781 18.984375 16.957031 18.960938 16.957031 C 18.695312 16.949219 18.488281 16.730469 18.496094 16.464844 C 18.5 16.207031 18.71875 16 18.984375 16 C 19.113281 16.003906 22.144531 16.101562 23.167969 18.0625 C 23.722656 19.125 23.644531 20.070312 23.480469 20.675781 C 23.441406 20.839844 23.46875 21.003906 23.558594 21.117188 C 23.613281 21.1875 23.722656 21.273438 23.910156 21.273438 C 23.910156 21.273438 25.585938 21.285156 26.960938 21 C 27.144531 20.960938 27.324219 21.097656 27.351562 21.285156 C 27.378906 21.472656 27.253906 21.648438 27.066406 21.675781 C 25.050781 21.992188 23.285156 22.148438 21.753906 22.148438 C 19.902344 22.148438 18.390625 21.917969 17.1875 21.457031 C 17.210938 22.304688 17.496094 23.042969 18.019531 23.644531 C 18.023438 23.652344 18.027344 23.65625 18.027344 23.660156 C 18.203125 23.84375 18.464844 24.101562 18.703125 24.320312 C 18.886719 24.484375 19.75 25.035156 19.972656 25.171875 C 20.40625 25.425781 22.378906 26.640625 22.570312 26.761719 C 23.4375 27.320312 23.695312 27.925781 23.722656 27.964844 C 23.8125 28.085938 23.863281 28.449219 23.863281 28.449219 C 23.941406 28.777344 24.234375 29.019531 24.585938 29.015625 C 24.996094 29.015625 25.328125 28.683594 25.324219 28.273438 C 25.324219 28.273438 25.335938 27.441406 25.011719 26.867188 C 24.960938 26.761719 24.277344 25.644531 23.488281 25.035156 C 23.246094 24.847656 22.683594 24.4375 22.683594 24.4375 L 22.679688 24.433594 C 22.613281 24.390625 22.59375 24.304688 22.636719 24.238281 C 22.675781 24.167969 22.765625 24.148438 22.835938 24.1875 C 22.835938 24.1875 24.5 25.359375 25.542969 25.066406 C 27.078125 24.640625 29.085938 23.632812 29.085938 21.359375 C 29.085938 21.023438 29.054688 20.707031 28.988281 20.40625 C 29.203125 20.292969 29.414062 20.164062 29.625 20.019531 C 29.875 19.820312 29.945312 19.574219 29.964844 19.402344 C 29.992188 19.15625 29.921875 18.898438 29.78125 18.726562 L 28.769531 17.425781 L 28.757812 17.410156 C 28.546875 17.144531 28.269531 17.089844 28.078125 17.089844 C 27.910156 17.089844 27.78125 17.128906 27.710938 17.15625 C 27.355469 17.332031 26.980469 17.480469 26.601562 17.589844 C 26.347656 17.664062 26.078125 17.511719 26.007812 17.261719 C 25.972656 17.140625 25.984375 17.011719 26.046875 16.898438 C 26.109375 16.785156 26.210938 16.707031 26.335938 16.671875 C 27.203125 16.417969 28.773438 15.726562 29.519531 13.902344 C 29.589844 13.71875 29.765625 13.605469 29.960938 13.605469 C 30.023438 13.605469 30.085938 13.617188 30.140625 13.640625 C 30.386719 13.738281 30.503906 14.019531 30.40625 14.265625 C 30.167969 14.847656 29.839844 15.378906 29.429688 15.847656 C 29.238281 16.148438 29.265625 16.464844 29.503906 16.808594 L 30.164062 17.667969 C 30.175781 17.679688 30.1875 17.6875 30.199219 17.691406 C 30.210938 17.695312 30.46875 17.769531 30.839844 17.769531 C 31.335938 17.769531 32.035156 17.632812 32.5625 16.988281 C 33.847656 15.453125 33.910156 14.125 33.953125 13.15625 C 33.960938 13.058594 33.964844 12.964844 33.96875 12.863281 C 33.914062 12.152344 33.457031 11.792969 33.253906 11.664062 Z M 13.578125 11.027344 C 12.960938 11.640625 12.277344 12.089844 11.554688 12.363281 C 11.546875 12.367188 11.539062 12.371094 11.53125 12.378906 C 11.199219 12.558594 11.082031 12.808594 11.144531 13.214844 L 11.417969 14.78125 C 11.445312 14.90625 11.417969 15.035156 11.347656 15.140625 C 11.273438 15.246094 11.167969 15.320312 11.039062 15.34375 C 10.78125 15.394531 10.527344 15.21875 10.476562 14.964844 L 10.179688 13.273438 C 10.085938 12.917969 9.746094 12.730469 9.523438 12.707031 C 9.515625 12.703125 9.503906 12.699219 9.492188 12.699219 C 7.113281 12.613281 5.203125 11.074219 5.183594 11.058594 C 5.085938 10.976562 5.023438 10.863281 5.011719 10.734375 C 5 10.609375 5.039062 10.484375 5.117188 10.382812 C 5.210938 10.273438 5.34375 10.207031 5.488281 10.207031 C 5.597656 10.207031 5.707031 10.246094 5.792969 10.316406 C 5.863281 10.375 7.582031 11.753906 9.644531 11.753906 C 10.863281 11.753906 11.960938 11.28125 12.90625 10.347656 C 13.085938 10.167969 13.402344 10.167969 13.582031 10.351562 C 13.671875 10.441406 13.722656 10.5625 13.722656 10.691406 C 13.722656 10.820312 13.671875 10.9375 13.578125 11.027344 Z M 14.210938 7.699219 C 12.710938 7.699219 11.640625 8.628906 11.597656 8.667969 C 11.507812 8.742188 11.398438 8.785156 11.28125 8.785156 C 11.140625 8.785156 11.011719 8.726562 10.921875 8.621094 C 10.835938 8.527344 10.792969 8.402344 10.800781 8.273438 C 10.808594 8.148438 10.867188 8.03125 10.964844 7.945312 C 11.621094 7.371094 12.820312 6.753906 14.222656 6.753906 C 15.234375 6.753906 16.199219 7.074219 17.09375 7.707031 C 17.199219 7.78125 17.269531 7.890625 17.289062 8.015625 C 17.3125 8.140625 17.28125 8.269531 17.207031 8.375 C 17.117188 8.5 16.972656 8.578125 16.816406 8.578125 C 16.71875 8.578125 16.621094 8.546875 16.542969 8.488281 C 15.800781 7.964844 15.015625 7.699219 14.210938 7.699219 Z M 25.300781 14.492188 C 25.21875 14.589844 25.101562 14.652344 24.976562 14.664062 C 22.910156 14.84375 21.375 14.390625 20.4375 13.316406 C 20.292969 13.152344 20.160156 12.964844 20.042969 12.761719 C 20.039062 12.757812 20.035156 12.753906 20.03125 12.75 C 19.90625 12.625 19.738281 12.558594 19.523438 12.550781 C 19.449219 12.546875 19.371094 12.550781 19.285156 12.5625 C 19.273438 12.5625 18.675781 12.695312 18.089844 12.675781 C 16.769531 12.628906 15.921875 12.011719 15.886719 11.984375 C 15.671875 11.828125 15.628906 11.527344 15.785156 11.316406 C 15.878906 11.1875 16.03125 11.113281 16.1875 11.121094 C 16.285156 11.125 16.375 11.15625 16.453125 11.210938 C 16.480469 11.230469 17.117188 11.65625 18.117188 11.714844 C 18.601562 11.742188 19.074219 11.589844 19.132812 11.566406 C 19.5 11.410156 19.488281 11 19.46875 10.84375 C 19.390625 9.917969 19.554688 9.175781 19.5625 9.144531 C 19.617188 8.894531 19.878906 8.726562 20.132812 8.785156 C 20.390625 8.84375 20.554688 9.097656 20.496094 9.355469 C 20.492188 9.378906 20.054688 11.429688 21.164062 12.691406 C 21.886719 13.515625 23.148438 13.863281 24.890625 13.707031 C 25.160156 13.6875 25.386719 13.882812 25.410156 14.144531 C 25.421875 14.269531 25.382812 14.394531 25.300781 14.492188 Z M 24.925781 7.074219 C 24.066406 7.898438 23.644531 9.207031 23.847656 10.410156 C 23.886719 10.644531 23.730469 10.867188 23.496094 10.910156 C 23.472656 10.914062 23.445312 10.914062 23.421875 10.914062 C 23.210938 10.914062 23.023438 10.765625 22.996094 10.554688 C 22.839844 9.269531 23.257812 8.082031 23.261719 8.070312 C 23.289062 8.003906 23.292969 7.945312 23.273438 7.898438 C 23.246094 7.835938 23.191406 7.804688 23.144531 7.789062 C 21.859375 7.644531 19.542969 7.15625 18.464844 5.476562 C 18.300781 5.230469 17.867188 5.355469 17.164062 5.355469 C 14.007812 5.351562 13.5625 3.324219 13.542969 3.238281 C 13.523438 3.125 13.542969 3.011719 13.609375 2.914062 C 13.671875 2.816406 13.769531 2.753906 13.882812 2.730469 C 13.910156 2.722656 13.9375 2.71875 13.96875 2.71875 C 14.167969 2.71875 14.347656 2.863281 14.390625 3.0625 C 14.402344 3.121094 14.75 4.492188 17.171875 4.492188 C 17.292969 4.492188 17.414062 4.488281 17.542969 4.480469 C 17.820312 4.449219 17.976562 4.300781 18.015625 4.035156 C 18.058594 3.101562 18.761719 2.40625 19.167969 2.144531 C 19.238281 2.097656 19.320312 2.074219 19.402344 2.074219 C 19.550781 2.074219 19.683594 2.148438 19.765625 2.273438 C 19.828125 2.371094 19.847656 2.488281 19.824219 2.597656 C 19.800781 2.710938 19.730469 2.808594 19.636719 2.871094 C 19.589844 2.898438 18.546875 3.597656 18.988281 4.628906 C 19.785156 6.484375 22.496094 6.878906 23.625 6.960938 C 23.765625 6.949219 23.929688 6.867188 24.066406 6.730469 C 24.164062 6.617188 24.246094 6.53125 24.328125 6.453125 C 25.425781 5.402344 25.488281 4.371094 25.492188 4.328125 C 25.503906 4.09375 25.707031 3.90625 25.941406 3.917969 C 26.179688 3.929688 26.363281 4.128906 26.355469 4.367188 C 26.351562 4.421875 26.285156 5.773438 24.925781 7.074219 Z M 24.925781 7.074219 " fill-opacity="1" fill-rule="nonzero"/></g><g fill="#ffffff" fill-opacity="1"><g transform="translate(38.423475, 20.685486)"><g><path d="M 10.1875 -6.078125 C 10.1875 -6.390625 10.070312 -6.691406 9.84375 -6.984375 C 9.613281 -7.285156 9.203125 -7.457031 8.609375 -7.5 C 8.222656 -7.03125 7.753906 -6.796875 7.203125 -6.796875 C 6.734375 -6.796875 6.332031 -6.957031 6 -7.28125 C 5.675781 -7.613281 5.515625 -8.019531 5.515625 -8.5 C 5.515625 -8.976562 5.675781 -9.382812 6 -9.71875 C 6.332031 -10.050781 6.734375 -10.21875 7.203125 -10.21875 C 7.453125 -10.21875 7.695312 -10.144531 7.9375 -10 C 8.175781 -9.863281 8.394531 -9.703125 8.59375 -9.515625 C 8.894531 -9.523438 9.125 -9.570312 9.28125 -9.65625 C 9.445312 -9.738281 9.566406 -9.835938 9.640625 -9.953125 C 9.722656 -10.066406 9.769531 -10.195312 9.78125 -10.34375 C 9.789062 -10.5 9.796875 -10.65625 9.796875 -10.8125 L 9.796875 -12.890625 C 9.796875 -13.234375 9.691406 -13.546875 9.484375 -13.828125 C 9.273438 -14.117188 8.914062 -14.265625 8.40625 -14.265625 L 4.09375 -14.265625 L 4.078125 -0.671875 C 4.078125 -0.398438 3.945312 -0.191406 3.6875 -0.046875 C 3.4375 0.0976562 3.160156 0.171875 2.859375 0.171875 C 2.046875 0.171875 1.640625 -0.160156 1.640625 -0.828125 L 1.640625 -15.109375 C 1.640625 -15.609375 1.765625 -15.9375 2.015625 -16.09375 C 2.273438 -16.257812 2.582031 -16.34375 2.9375 -16.34375 L 8.921875 -16.34375 C 9.273438 -16.34375 9.65625 -16.273438 10.0625 -16.140625 C 10.46875 -16.003906 10.847656 -15.820312 11.203125 -15.59375 L 11.1875 -15.59375 C 11.539062 -15.332031 11.800781 -14.988281 11.96875 -14.5625 C 12.144531 -14.132812 12.234375 -13.640625 12.234375 -13.078125 L 12.234375 -10.75 C 12.234375 -10.195312 12.113281 -9.742188 11.875 -9.390625 C 11.644531 -9.046875 11.398438 -8.769531 11.140625 -8.5625 C 11.316406 -8.457031 11.488281 -8.34375 11.65625 -8.21875 C 11.820312 -8.101562 11.957031 -7.976562 12.0625 -7.84375 C 12.238281 -7.65625 12.378906 -7.429688 12.484375 -7.171875 C 12.585938 -6.910156 12.640625 -6.597656 12.640625 -6.234375 L 12.640625 -3.296875 C 12.640625 -2.171875 12.203125 -1.335938 11.328125 -0.796875 C 10.890625 -0.523438 10.472656 -0.320312 10.078125 -0.1875 C 9.691406 -0.0507812 9.304688 0.015625 8.921875 0.015625 L 5.875 0.015625 C 5.632812 0.015625 5.445312 -0.078125 5.3125 -0.265625 C 5.1875 -0.460938 5.125 -0.71875 5.125 -1.03125 C 5.125 -1.71875 5.414062 -2.0625 6 -2.0625 L 8.8125 -2.0625 C 9.320312 -2.0625 9.675781 -2.203125 9.875 -2.484375 C 10.082031 -2.773438 10.1875 -3.097656 10.1875 -3.453125 Z M 10.1875 -6.078125 "/></g></g></g><g fill="#ffffff" fill-opacity="1"><g transform="translate(53.128193, 20.685486)"><g><path d="M 7.46875 -6.78125 L 5.890625 -6.78125 C 5.660156 -6.78125 5.476562 -6.867188 5.34375 -7.046875 C 5.207031 -7.234375 5.140625 -7.488281 5.140625 -7.8125 C 5.140625 -8.507812 5.429688 -8.859375 6.015625 -8.859375 L 8.421875 -8.859375 C 8.929688 -8.859375 9.285156 -9 9.484375 -9.28125 C 9.691406 -9.570312 9.796875 -9.890625 9.796875 -10.234375 L 9.796875 -12.890625 C 9.796875 -13.234375 9.691406 -13.546875 9.484375 -13.828125 C 9.285156 -14.117188 8.929688 -14.265625 8.421875 -14.265625 L 4.078125 -14.265625 L 4.078125 -0.84375 C 4.078125 -0.1875 3.671875 0.140625 2.859375 0.140625 C 2.046875 0.140625 1.640625 -0.1875 1.640625 -0.84375 L 1.640625 -15.109375 C 1.640625 -15.609375 1.765625 -15.9375 2.015625 -16.09375 C 2.273438 -16.257812 2.582031 -16.34375 2.9375 -16.34375 L 8.9375 -16.34375 C 9.289062 -16.34375 9.660156 -16.265625 10.046875 -16.109375 C 10.429688 -15.960938 10.800781 -15.773438 11.15625 -15.546875 L 11.140625 -15.546875 C 11.492188 -15.285156 11.765625 -14.945312 11.953125 -14.53125 C 12.148438 -14.113281 12.25 -13.628906 12.25 -13.078125 L 12.25 -10.0625 C 12.25 -8.957031 11.878906 -8.128906 11.140625 -7.578125 C 10.992188 -7.460938 10.832031 -7.359375 10.65625 -7.265625 C 10.488281 -7.171875 10.3125 -7.078125 10.125 -6.984375 L 13.421875 -1.546875 C 13.460938 -1.472656 13.503906 -1.378906 13.546875 -1.265625 C 13.585938 -1.160156 13.609375 -1.078125 13.609375 -1.015625 C 13.609375 -0.679688 13.375 -0.363281 12.90625 -0.0625 L 12.90625 -0.078125 C 12.59375 0.109375 12.328125 0.203125 12.109375 0.203125 C 11.796875 0.203125 11.539062 0.046875 11.34375 -0.265625 L 11.375 -0.25 Z M 7.46875 -6.78125 "/></g></g></g><g fill="#ee2b6c" fill-opacity="1"><g transform="translate(67.637185, 20.685486)"><g><path d="M 7.0625 -14.328125 L 2.546875 -0.5 L 2.546875 -0.515625 C 2.472656 -0.304688 2.363281 -0.132812 2.21875 0 C 2.070312 0.125 1.894531 0.1875 1.6875 0.1875 C 1.582031 0.1875 1.476562 0.175781 1.375 0.15625 C 1.269531 0.132812 1.160156 0.109375 1.046875 0.078125 L 1.078125 0.078125 C 0.285156 -0.160156 -0.00390625 -0.597656 0.203125 -1.234375 L 4.90625 -15.5 C 4.96875 -15.726562 5.082031 -15.914062 5.25 -16.0625 C 5.425781 -16.21875 5.632812 -16.304688 5.875 -16.328125 C 6.101562 -16.367188 6.328125 -16.398438 6.546875 -16.421875 C 6.765625 -16.441406 6.9375 -16.453125 7.0625 -16.453125 C 7.1875 -16.453125 7.359375 -16.441406 7.578125 -16.421875 C 7.796875 -16.398438 8.023438 -16.375 8.265625 -16.34375 C 8.453125 -16.320312 8.640625 -16.222656 8.828125 -16.046875 C 9.015625 -15.867188 9.15625 -15.6875 9.25 -15.5 C 10.019531 -13.144531 10.796875 -10.769531 11.578125 -8.375 C 12.367188 -5.976562 13.148438 -3.597656 13.921875 -1.234375 C 14.109375 -0.597656 13.820312 -0.160156 13.0625 0.078125 C 12.945312 0.109375 12.84375 0.132812 12.75 0.15625 C 12.664062 0.175781 12.566406 0.1875 12.453125 0.1875 C 12.265625 0.1875 12.09375 0.125 11.9375 0 C 11.78125 -0.132812 11.664062 -0.304688 11.59375 -0.515625 L 11.59375 -0.5 Z M 8.609375 -4.9375 C 8.609375 -4.5 8.453125 -4.125 8.140625 -3.8125 C 7.835938 -3.507812 7.460938 -3.359375 7.015625 -3.359375 C 6.578125 -3.359375 6.207031 -3.507812 5.90625 -3.8125 C 5.601562 -4.125 5.453125 -4.5 5.453125 -4.9375 C 5.453125 -5.375 5.601562 -5.75 5.90625 -6.0625 C 6.207031 -6.375 6.578125 -6.53125 7.015625 -6.53125 C 7.460938 -6.53125 7.835938 -6.375 8.140625 -6.0625 C 8.453125 -5.75 8.609375 -5.375 8.609375 -4.9375 Z M 8.609375 -4.9375 "/></g></g></g><g fill="#ee2b6c" fill-opacity="1"><g transform="translate(82.383102, 20.685486)"><g><path d="M 4.1875 -0.859375 C 4.1875 -0.203125 3.769531 0.125 2.9375 0.125 C 2.132812 0.125 1.734375 -0.203125 1.734375 -0.859375 L 1.734375 -15.46875 C 1.734375 -16.125 2.132812 -16.453125 2.9375 -16.453125 C 3.769531 -16.453125 4.1875 -16.125 4.1875 -15.46875 Z M 4.1875 -0.859375 "/></g></g></g><g fill="#ffffff" fill-opacity="1"><g transform="translate(88.833001, 20.685486)"><g><path d="M 10.765625 -15.46875 C 10.765625 -16.125 11.171875 -16.453125 11.984375 -16.453125 C 12.796875 -16.453125 13.203125 -16.125 13.203125 -15.46875 L 13.203125 -1.25 C 13.203125 -0.769531 12.945312 -0.421875 12.4375 -0.203125 L 12.453125 -0.203125 C 12.234375 -0.109375 12 -0.0351562 11.75 0.015625 C 11.507812 0.078125 11.269531 0.109375 11.03125 0.109375 C 10.851562 0.109375 10.664062 0.0859375 10.46875 0.046875 C 10.28125 0.015625 10.097656 -0.0351562 9.921875 -0.109375 C 9.753906 -0.179688 9.597656 -0.285156 9.453125 -0.421875 C 9.316406 -0.554688 9.207031 -0.71875 9.125 -0.90625 L 4.65625 -12.046875 L 4.09375 -11.984375 L 4.09375 -0.859375 C 4.09375 -0.203125 3.679688 0.125 2.859375 0.125 C 2.046875 0.125 1.640625 -0.203125 1.640625 -0.859375 L 1.640625 -15.046875 C 1.640625 -15.609375 1.890625 -15.988281 2.390625 -16.1875 C 2.835938 -16.363281 3.316406 -16.453125 3.828125 -16.453125 C 4.179688 -16.453125 4.539062 -16.378906 4.90625 -16.234375 C 5.269531 -16.085938 5.550781 -15.816406 5.75 -15.421875 L 10.1875 -4.265625 L 10.765625 -4.328125 Z M 10.765625 -15.46875 "/></g></g></g><g fill="#ffffff" fill-opacity="1"><g transform="translate(104.073181, 20.685486)"><g><path d="M 2.9375 0.015625 C 2.4375 0.015625 2.09375 -0.113281 1.90625 -0.375 C 1.726562 -0.632812 1.640625 -0.921875 1.640625 -1.234375 L 1.640625 -15.46875 C 1.640625 -16.125 2.039062 -16.453125 2.84375 -16.453125 C 3.664062 -16.453125 4.078125 -16.125 4.078125 -15.46875 L 4.078125 -2.0625 L 10.953125 -2.0625 C 11.453125 -2.0625 11.703125 -1.722656 11.703125 -1.046875 C 11.722656 -0.335938 11.472656 0.015625 10.953125 0.015625 Z M 2.9375 0.015625 "/></g></g></g><g fill="#ffffff" fill-opacity="1"><g transform="translate(116.636053, 20.685486)"><g><path d="M 4.1875 -0.859375 C 4.1875 -0.203125 3.769531 0.125 2.9375 0.125 C 2.132812 0.125 1.734375 -0.203125 1.734375 -0.859375 L 1.734375 -15.46875 C 1.734375 -16.125 2.132812 -16.453125 2.9375 -16.453125 C 3.769531 -16.453125 4.1875 -16.125 4.1875 -15.46875 Z M 4.1875 -0.859375 "/></g></g></g></svg>